<?xml version="1.0" standalone="no"?>
<!DOCTYPE svg PUBLIC "-//W3C//DTD SVG 20010904//EN"
 "http://www.w3.org/TR/2001/REC-SVG-20010904/DTD/svg10.dtd">
<svg version="1.0" xmlns="http://www.w3.org/2000/svg"
 width="630.000000pt" height="383.000000pt" viewBox="0 0 630.000000 383.000000"
 preserveAspectRatio="xMidYMid meet">

<g transform="translate(0.000000,383.000000) scale(0.100000,-0.100000)"
fill="#000000" stroke="none">
<path d="M3085 3283 c-74 -18 -174 -58 -197 -80 -19 -18 -31 -44 -39 -82 -6
-31 -20 -94 -31 -141 -21 -92 -21 -93 -14 -160 6 -66 7 -67 16 -45 5 11 9 15
9 8 1 -6 6 -24 13 -40 6 -15 11 -31 10 -34 -1 -4 8 -5 19 -2 18 5 19 11 14 62
-5 46 -2 64 17 100 23 43 24 44 78 45 30 1 87 8 125 16 69 13 71 13 133 -15
34 -15 61 -30 59 -32 -3 -2 -24 -7 -47 -11 -39 -7 -43 -10 -45 -37 -2 -32 19
-65 42 -65 8 0 11 5 8 10 -7 11 13 14 58 11 28 -2 36 12 15 26 -7 4 -22 8 -33
8 -11 0 -20 7 -20 15 0 11 10 14 39 13 33 -2 36 -1 26 12 -10 12 -9 15 8 15
27 0 29 -5 45 -83 12 -53 12 -81 2 -154 -20 -142 -72 -239 -149 -274 -58 -26
-109 -17 -218 38 -14 7 -29 13 -33 13 -15 0 62 -69 98 -88 46 -24 34 -36 -29
-26 -52 8 -68 25 -84 99 -6 28 -19 64 -29 81 -10 17 -26 54 -35 82 -13 38 -23
52 -36 52 -13 0 -21 10 -26 33 -4 17 -9 26 -11 19 -3 -6 -9 -10 -14 -7 -5 4
-6 -2 -2 -11 3 -10 2 -15 -3 -12 -5 3 -21 -21 -36 -53 l-27 -59 27 6 27 5 -24
-20 c-13 -12 -19 -21 -15 -21 5 -1 -2 -10 -16 -22 -14 -12 -18 -19 -10 -16 8
4 24 10 35 14 18 7 19 6 5 -11 -9 -11 -10 -16 -2 -11 21 13 13 -14 -12 -39
-13 -13 -21 -26 -18 -29 3 -3 0 -6 -6 -6 -6 0 -9 -6 -6 -13 3 -8 -2 -20 -11
-27 -8 -7 -15 -17 -15 -22 0 -6 21 11 47 36 25 25 51 46 57 46 6 0 5 -5 -2
-12 -7 -7 -12 -17 -12 -23 1 -5 10 1 22 15 l21 25 -8 -35 c-10 -47 -34 -92
-45 -85 -5 3 -11 1 -15 -5 -3 -5 0 -10 7 -10 24 -1 -65 -70 -104 -81 -36 -9
-44 -29 -12 -29 8 0 12 -4 9 -10 -4 -7 3 -7 20 0 41 15 41 13 7 -23 -18 -18
-29 -36 -26 -40 4 -3 -5 -11 -20 -17 -30 -11 -39 -19 -74 -64 -20 -27 -27 -23
-23 13 2 7 -2 10 -8 6 -6 -3 -11 -17 -11 -31 0 -14 -6 -40 -14 -59 -8 -18 -13
-35 -11 -37 2 -2 6 -27 10 -57 7 -57 0 -70 -40 -71 -11 0 -27 -4 -35 -10 -12
-7 -7 -16 27 -48 33 -32 40 -44 36 -66 -4 -16 -11 -25 -21 -24 -8 2 -17 -3
-19 -9 -3 -7 0 -13 6 -13 6 0 11 -5 11 -11 0 -7 8 -18 18 -25 14 -12 15 -15 3
-23 -9 -6 -15 -27 -16 -56 0 -29 -6 -50 -15 -55 -12 -8 -11 -10 5 -10 20 0 19
-1 -1 -18 -12 -9 -24 -24 -27 -32 -4 -11 -6 -10 -6 4 -1 18 -4 17 -29 -7 -16
-16 -39 -27 -55 -27 -22 0 -27 -5 -27 -24 0 -32 8 -36 76 -43 54 -6 87 -23 42
-23 -38 0 -212 20 -231 26 -16 5 -16 8 -4 17 17 14 30 47 18 47 -5 0 -11 -9
-14 -21 -3 -13 -12 -19 -24 -17 -11 2 -17 -2 -15 -11 2 -9 -4 -12 -20 -8 -13
4 -109 7 -213 8 -105 1 -207 4 -228 7 -36 4 -37 5 -22 22 12 13 15 28 10 49
-5 24 -3 31 9 31 13 0 13 4 1 33 -14 35 -24 165 -12 183 4 7 -2 10 -18 6 -21
-4 -25 -1 -25 21 0 14 -6 27 -12 30 -9 3 -7 9 6 19 13 11 20 30 22 66 2 49
-10 69 -22 37 -4 -8 -15 -15 -25 -15 -11 0 -22 -6 -25 -14 -4 -10 -32 -14
-118 -15 -125 -2 -146 2 -146 30 0 24 -16 25 -29 1 -9 -16 0 -23 71 -52 74
-30 80 -34 63 -46 -18 -14 -18 -14 1 -14 16 0 17 -2 4 -10 -12 -8 -9 -10 13
-10 16 0 26 -4 23 -9 -7 -11 17 -21 50 -21 13 0 24 -5 24 -11 0 -8 -12 -10
-36 -6 -26 4 -37 2 -41 -10 -9 -23 -54 -68 -65 -65 -11 3 -42 -31 -63 -70 -15
-28 -15 -28 14 -28 21 0 31 6 36 23 8 21 8 21 12 -5 3 -16 9 -25 16 -22 11 4
57 -29 57 -41 0 -3 -12 0 -27 6 -20 7 -28 6 -35 -3 -6 -10 -8 -9 -8 3 0 9 -7
19 -15 23 -10 3 -15 -1 -15 -13 0 -10 7 -21 15 -25 16 -6 21 -36 5 -36 -5 0
-7 7 -3 16 4 10 1 15 -8 14 -34 -5 -48 2 -57 28 -9 26 -9 26 -16 -15 -4 -24
-12 -45 -16 -48 -5 -3 -7 -12 -3 -20 3 -8 0 -15 -6 -15 -13 0 -15 37 -1 45 5
3 7 11 4 18 -2 7 13 70 35 140 35 115 37 127 20 122 -13 -4 -19 -2 -19 8 0 10
8 13 25 9 14 -2 25 -2 25 1 0 10 -152 77 -176 77 -7 0 -16 -9 -19 -20 -3 -11
-11 -20 -16 -20 -6 0 -7 9 -4 20 7 22 -5 26 -23 8 -9 -9 -12 -8 -12 5 0 20
-16 23 -23 5 -3 -8 -6 -6 -6 4 -1 11 -6 15 -16 12 -9 -4 -15 0 -15 10 0 34
-17 14 -35 -41 -10 -32 -20 -53 -22 -46 -6 16 24 102 42 120 21 21 18 60 -6
84 -20 20 -28 21 -123 15 -180 -12 -192 -18 -338 -166 -126 -129 -127 -130
-133 -100 -4 17 -12 30 -20 30 -24 0 -36 -29 -37 -89 -1 -47 4 -66 18 -82 18
-20 25 -21 143 -14 76 4 149 14 185 26 88 27 88 27 67 -33 -10 -29 -21 -79
-25 -110 l-7 -57 38 -20 c51 -27 73 -46 73 -61 0 -7 -10 -3 -23 10 -13 12 -37
28 -54 35 l-32 14 -21 -47 c-43 -94 -45 -97 -91 -100 -36 -3 -46 1 -78 32 -20
19 -53 42 -73 51 -55 22 -185 20 -250 -5 -28 -11 -52 -19 -53 -17 -1 1 -11 16
-23 34 -12 17 -22 40 -22 52 0 19 -4 20 -53 16 -80 -7 -107 -19 -107 -50 0
-14 -7 -37 -16 -50 -17 -26 -20 -149 -6 -215 6 -28 14 -36 42 -44 19 -5 39
-16 43 -23 5 -8 27 -13 56 -13 66 0 71 -12 14 -30 -45 -14 -48 -17 -48 -50 0
-45 40 -73 143 -97 70 -16 135 -18 710 -18 534 0 632 -2 632 -14 0 -8 -13 -55
-29 -106 -33 -103 -41 -201 -22 -280 6 -28 22 -102 34 -165 l22 -115 1195 0
1195 0 -1 135 c-2 131 -10 208 -40 360 -9 41 -19 98 -24 125 -5 28 -12 58 -16
68 -6 17 -2 18 47 13 30 -3 110 -8 179 -11 69 -4 195 -13 280 -21 85 -8 238
-21 340 -29 102 -8 250 -21 330 -30 215 -23 501 -30 670 -16 162 14 285 35
306 52 39 32 -5 74 -91 86 -25 3 -45 10 -45 14 0 24 42 46 111 58 85 15 105
24 113 48 4 10 30 33 60 51 51 32 54 35 60 85 10 88 9 91 -38 121 -30 19 -47
37 -51 56 -3 16 -12 33 -18 38 -10 7 -323 -15 -335 -23 -2 -2 5 -19 14 -39 10
-19 15 -38 12 -41 -3 -3 -91 -7 -195 -8 l-190 -2 -60 56 c-34 31 -72 59 -85
62 l-23 6 21 -17 c22 -19 21 -42 -2 -42 -8 0 -29 8 -47 17 -18 9 -45 19 -60
22 -15 3 -27 10 -27 16 1 5 -7 13 -17 17 -18 7 -5 6 92 -6 35 -5 37 -4 15 5
-14 6 -56 11 -95 12 -60 2 -77 -2 -117 -26 -54 -31 -60 -33 -52 -12 4 10 0 15
-11 15 -12 0 -15 5 -10 20 4 11 0 29 -9 42 -22 31 -20 39 7 33 21 -6 22 -4 18
42 -4 42 -5 44 -11 18 -9 -50 -20 -13 -26 92 l-6 98 48 -54 c72 -81 82 -83
297 -71 100 6 193 13 207 15 14 2 43 4 65 5 38 1 38 2 15 12 -23 9 -23 11 -6
17 16 6 -3 27 -115 130 -74 68 -170 152 -214 187 l-79 64 -76 2 c-41 1 -90 1
-107 -1 l-33 -2 0 77 0 76 -37 -7 c-23 -4 -45 -16 -56 -31 -10 -13 -23 -22
-27 -19 -5 3 -11 1 -15 -5 -3 -5 -1 -10 4 -10 6 0 11 -9 11 -20 0 -11 5 -20
10 -20 15 0 12 -38 -4 -47 -8 -4 -14 -15 -14 -23 3 -41 -4 -70 -18 -84 -14
-15 -14 -17 0 -22 22 -8 20 -19 -4 -21 -11 -1 -20 4 -20 12 0 8 -4 17 -10 20
-6 4 -7 -1 -3 -11 5 -13 3 -15 -8 -10 -9 5 -9 3 2 -6 8 -7 18 -21 22 -31 4
-11 12 -15 18 -11 8 4 9 3 5 -5 -4 -6 -11 -9 -16 -6 -4 3 -6 -13 -3 -35 4 -27
0 -47 -11 -65 -9 -14 -14 -30 -11 -35 3 -5 0 -12 -6 -16 -8 -5 -10 -2 -5 7 4
8 -2 3 -13 -11 -11 -14 -18 -32 -15 -40 3 -8 2 -11 -2 -8 -7 8 -28 -17 -62
-74 -18 -28 -19 -36 -8 -34 9 1 19 6 23 11 4 4 2 5 -6 0 -9 -5 -12 -3 -9 6 3
8 11 13 18 11 8 -2 10 3 7 13 -5 10 0 15 13 15 24 0 28 -38 5 -46 -8 -4 -15
-15 -15 -25 0 -10 -4 -19 -9 -19 -6 0 -9 -24 -8 -53 1 -70 -17 -131 -45 -145
-16 -7 -18 -11 -7 -11 12 -1 15 -8 11 -29 -6 -35 -20 -52 -43 -52 -15 0 -17
-5 -13 -29 4 -21 2 -30 -11 -35 -17 -6 -17 -7 0 -26 23 -25 13 -50 -17 -43
-18 4 -20 3 -8 -6 13 -9 12 -12 -5 -25 -11 -8 -23 -12 -27 -10 -5 3 -8 -2 -8
-10 0 -9 -6 -16 -13 -16 -7 0 -17 -10 -22 -22 -12 -26 -35 -36 -35 -14 0 15
-65 40 -80 31 -4 -2 -21 0 -39 5 -19 5 -29 5 -26 -1 10 -15 -9 -10 -32 10 -25
21 -30 53 -10 69 6 5 33 13 59 16 26 4 55 14 63 22 28 28 13 84 -22 84 -7 0
-13 -6 -13 -14 0 -20 -54 -30 -157 -27 -54 2 -93 -1 -93 -6 0 -21 155 -163
178 -163 5 0 17 -9 27 -20 10 -11 24 -20 30 -20 28 0 23 -29 -5 -39 -26 -9
-36 -6 -82 26 -73 49 -147 93 -158 93 -5 0 -7 -7 -4 -15 4 -8 13 -15 22 -15 8
0 12 -3 9 -7 -4 -3 -2 -12 5 -20 26 -32 -5 -21 -55 20 -42 34 -72 49 -133 65
-73 20 -96 21 -294 16 -118 -3 -222 -8 -230 -11 -8 -3 -40 -7 -70 -9 -30 -2
-71 -6 -90 -8 -19 -3 -75 0 -124 6 -68 8 -90 8 -96 -1 -4 -7 -37 -14 -77 -16
-80 -5 -74 -9 -145 95 -57 84 -81 136 -74 164 14 55 103 114 208 136 80 16 90
11 113 -63 18 -56 23 -62 50 -65 50 -5 215 -40 288 -61 59 -17 69 -18 74 -5 3
8 4 214 1 458 -2 308 0 446 7 453 16 15 105 22 134 12 17 -7 27 -6 31 2 6 8 9
7 13 -2 4 -9 6 -8 6 5 1 18 13 18 321 11 301 -7 551 1 745 24 l60 7 -80 9
c-55 6 -136 3 -260 -8 -121 -10 -182 -12 -186 -5 -4 7 -9 6 -14 -2 -5 -8 -89
-11 -320 -9 l-312 2 -7 81 c-3 45 -6 111 -6 148 l0 66 -32 7 c-45 10 -85 40
-104 78 l-15 32 22 -25 c14 -15 20 -18 16 -8 -4 12 0 18 16 21 22 4 22 4 -1 6
-15 1 -21 5 -16 13 5 8 2 9 -11 4 -15 -5 -16 -4 -5 9 7 8 16 13 20 10 5 -3 12
0 16 6 4 8 3 9 -4 5 -18 -11 -14 5 5 26 16 18 16 22 -1 71 -23 67 -44 113 -72
158 -21 33 -22 43 -14 100 15 103 13 112 -31 163 -64 72 -117 99 -209 104 -67
4 -85 1 -131 -20 -30 -14 -85 -50 -123 -81 -38 -32 -73 -57 -79 -57 -7 0 -7 3
-1 8 100 86 138 114 184 138 47 25 66 29 135 29 89 0 142 -21 203 -78 l32 -31
0 41 c0 44 -27 113 -57 149 -45 54 -198 104 -268 87z m-265 -719 c-7 -7 -19
-14 -26 -14 -12 0 -12 6 2 32 14 27 17 29 26 14 6 -11 6 -22 -2 -32z m655 -62
c-3 -7 0 -10 5 -7 6 3 10 2 10 -4 0 -20 -22 -23 -35 -5 -16 22 -20 78 -5 69 6
-3 10 0 11 7 0 7 5 0 10 -17 5 -16 7 -36 4 -43z m-179 -189 c-9 -26 -16 -58
-16 -73 0 -14 -6 -35 -14 -45 -13 -19 -16 -18 -51 20 -20 22 -43 52 -51 66
-13 26 -12 27 14 33 43 10 114 49 120 66 15 37 13 -23 -2 -67z m-2232 -459 c9
-4 16 -18 16 -34 l0 -29 -67 2 -68 2 -22 -45 c-12 -25 -22 -40 -23 -35 0 6
-30 11 -66 11 -36 1 -67 4 -69 5 -2 2 -1 25 2 51 6 54 11 58 113 68 89 10 165
11 184 4z m-337 -120 c-3 -3 -17 -7 -32 -10 -30 -5 -30 -4 15 50 14 18 15 17
18 -9 2 -15 1 -29 -1 -31z m378 -24 c3 -5 1 -10 -4 -10 -6 0 -11 5 -11 10 0 6
2 10 4 10 3 0 8 -4 11 -10z m3672 -242 c-3 -8 -6 -5 -6 6 -1 11 2 17 5 13 3
-3 4 -12 1 -19z m-23 -26 c3 -5 -1 -9 -9 -9 -8 0 -12 4 -9 9 3 4 7 8 9 8 2 0
6 -4 9 -8z m-3269 -132 c3 -5 -1 -10 -9 -10 -9 0 -16 5 -16 10 0 6 4 10 9 10
6 0 13 -4 16 -10z m1010 -10 c3 -5 1 -10 -4 -10 -6 0 -11 5 -11 10 0 6 2 10 4
10 3 0 8 -4 11 -10z m-1186 -37 c-7 -10 -15 -20 -16 -22 -2 -2 -3 5 -3 17 0
14 6 22 16 22 14 0 15 -3 3 -17z m564 -23 c135 0 137 0 137 -22 0 -18 12 -29
53 -48 40 -19 65 -42 107 -98 68 -89 112 -116 227 -137 120 -23 143 -37 143
-93 0 -92 -51 -135 -160 -137 -36 -1 -99 -9 -140 -19 -48 -11 -90 -14 -119
-10 -34 5 -42 4 -36 -6 7 -12 -5 -11 -82 7 -27 6 -32 -13 -5 -20 13 -4 13 -5
-4 -6 -14 -1 -24 6 -27 20 -4 15 -11 20 -22 16 -8 -4 -31 2 -50 13 -23 13 -36
16 -41 9 -9 -16 -24 10 -24 43 0 15 -8 31 -17 37 -10 5 -14 13 -10 17 5 5 12
2 16 -5 7 -10 10 -10 16 -1 6 9 9 9 15 0 6 -9 10 -6 15 9 4 15 1 29 -9 40 -12
13 -15 29 -10 64 5 34 3 47 -5 47 -8 0 -10 -8 -6 -19 7 -23 -4 -71 -16 -71 -5
0 -10 8 -10 18 -1 16 -2 16 -6 0 -8 -32 -23 -19 -23 20 0 37 -19 85 -21 52 0
-10 -3 -8 -9 5 -7 17 -9 17 -9 3 -1 -10 -8 -18 -17 -18 -13 0 -15 -7 -10 -30
7 -36 -3 -38 -29 -7 -17 19 -20 20 -23 5 -4 -22 -9 -22 -27 -4 -14 14 -13 35
7 179 8 59 14 77 26 77 12 0 13 3 5 11 -18 18 17 71 42 64 11 -2 82 -5 158 -5z
m-778 -152 c14 -6 25 -15 25 -20 0 -13 -13 -9 -40 12 -28 22 -23 25 15 8z
m1343 -41 c2 -10 -3 -17 -11 -17 -18 0 -39 24 -30 34 12 12 38 2 41 -17z
m-1273 3 c13 -6 15 -9 5 -9 -8 0 -22 4 -30 9 -18 12 -2 12 25 0z m5045 -29 c0
-44 -2 -45 -105 -56 l-61 -7 4 41 c4 37 7 41 36 46 131 21 126 21 126 -24z
m-5490 -15 c0 -28 7 -41 37 -65 l38 -31 -30 -1 c-17 0 -39 -2 -50 -4 -32 -6
-42 6 -52 67 -10 61 -9 64 40 67 13 1 17 -7 17 -33z m-270 -2 c0 -13 3 -14 14
-5 10 9 16 8 26 -3 6 -9 9 -20 5 -26 -3 -5 1 -10 9 -10 19 0 22 -36 4 -43 -7
-2 -18 9 -25 24 -24 57 -109 50 -130 -11 -7 -19 -12 -27 -12 -18 -1 9 -6 18
-12 20 -15 5 0 38 18 38 8 0 12 4 9 9 -9 13 19 32 38 25 9 -3 16 -1 16 5 0 6
9 11 20 11 12 0 20 -7 20 -16z m4456 -95 l1 -70 -101 6 c-188 11 -187 8 -45
75 68 32 129 59 134 59 6 1 10 -30 11 -70z m324 17 c0 -6 -7 -2 -15 8 -8 11
-15 25 -15 30 0 6 7 2 15 -8 8 -11 15 -25 15 -30z m-3460 18 c0 -1 -3 -9 -6
-18 -8 -22 -24 -20 -24 2 0 10 7 19 15 19 8 0 15 -1 15 -3z m3460 -39 c6 3 10
1 10 -4 0 -6 -4 -11 -10 -11 -5 0 -10 -15 -11 -32 -1 -31 -1 -30 -18 16 -9 28
-23 52 -29 54 -7 2 -9 9 -5 14 4 7 15 1 30 -16 13 -15 28 -24 33 -21z m-4683
-7 c-3 -7 -5 -2 -5 12 0 14 2 19 5 13 2 -7 2 -19 0 -25z m325 -22 c21 -15 18
-16 -66 -16 -65 0 -87 3 -84 12 10 30 109 33 150 4z m-349 -34 c-27 -36 -59
-52 -110 -52 -34 0 -49 6 -75 31 l-33 31 30 -22 c64 -44 155 -31 185 25 7 14
16 23 19 20 2 -3 -4 -18 -16 -33z m1121 -12 c-6 -5 -24 21 -24 34 0 6 6 1 14
-10 8 -10 12 -21 10 -24z m3526 -34 c0 -15 -3 -16 -15 -6 -8 7 -15 27 -15 44
l1 31 14 -25 c8 -14 14 -33 15 -44z m-3400 50 c0 -11 -19 -15 -25 -6 -3 5 1
10 9 10 9 0 16 -2 16 -4z m2206 -23 c-7 -7 -26 7 -26 19 0 6 6 6 15 -2 9 -7
13 -15 11 -17z m814 -4 c204 -15 196 -14 248 -5 35 6 42 5 42 -8 0 -19 -50
-20 -240 -6 -251 19 -285 23 -265 30 11 4 27 5 35 4 8 -2 89 -9 180 -15z
m-3106 -1 c-4 -7 -9 -26 -10 -43 -4 -59 -5 -61 -13 -40 -10 25 8 95 25 95 3 0
2 -5 -2 -12z m3794 -21 c3 -26 2 -28 -32 -24 -37 4 -61 16 -35 18 8 1 18 1 22
0 5 -1 5 8 2 20 -6 17 -3 20 17 17 17 -2 24 -10 26 -31z m-3753 4 c-3 -6 -11
-11 -16 -11 -5 0 -4 6 3 14 14 16 24 13 13 -3z m960 -128 c-17 -46 -57 -215
-64 -273 l-8 -65 -2 51 c-1 68 -28 195 -51 247 -10 23 -16 45 -14 49 3 4 37 8
76 8 63 0 69 -2 63 -17z"/>
<path d="M1780 1150 c0 -11 7 -20 15 -20 17 0 18 2 9 24 -9 23 -24 20 -24 -4z"/>
<path d="M2042 1136 c28 -27 38 -32 38 -18 0 4 -15 16 -32 26 l-33 18 27 -26z"/>
<path d="M1935 1060 c-7 -20 2 -61 15 -70 11 -8 21 -60 11 -60 -5 0 -12 6 -14
13 -3 6 -6 2 -6 -10 -1 -13 5 -23 12 -23 7 0 29 -16 48 -36 36 -38 84 -67 100
-62 5 2 -12 26 -39 53 -30 32 -53 68 -61 95 -13 46 -48 120 -56 120 -2 0 -7
-9 -10 -20z"/>
<path d="M2040 1041 c0 -5 14 -24 31 -42 25 -26 32 -30 40 -18 5 8 9 17 9 21
0 13 -32 38 -41 33 -5 -4 -9 -1 -9 4 0 6 -7 11 -15 11 -8 0 -15 -4 -15 -9z"/>
<path d="M2108 943 c7 -3 16 -2 19 1 4 3 -2 6 -13 5 -11 0 -14 -3 -6 -6z"/>
<path d="M2144 3099 c-10 -4 -46 -11 -78 -14 -47 -5 -65 -13 -88 -35 -15 -16
-28 -38 -28 -49 0 -12 -6 -21 -14 -21 -9 0 -17 -16 -21 -42 -4 -24 -12 -48
-17 -55 -6 -7 -7 -30 -3 -55 l8 -43 12 48 c17 68 75 123 88 85 3 -10 13 -10
48 1 57 19 158 16 207 -5 l38 -17 -4 -52 c-3 -38 1 -62 16 -91 10 -21 22 -67
25 -101 4 -52 2 -67 -14 -87 -10 -13 -19 -29 -19 -35 0 -6 -12 -36 -26 -66
-18 -37 -30 -53 -37 -46 -6 6 -20 -6 -41 -37 -17 -25 -47 -58 -66 -73 -44 -34
-112 -46 -134 -23 -9 8 -14 19 -11 24 3 5 1 10 -4 12 -14 5 -81 140 -75 150 4
6 23 -9 44 -32 23 -26 42 -40 49 -35 9 5 7 11 -5 19 -9 7 -13 16 -8 19 18 11
134 20 134 10 0 -15 -23 -33 -45 -34 -14 -1 -15 -3 -4 -6 23 -6 109 34 109 51
0 8 5 16 11 18 14 5 -6 48 -21 48 -6 0 -10 5 -10 11 0 11 -40 48 -52 49 -5 0
-8 -9 -8 -19 0 -14 -5 -18 -20 -14 -11 3 -27 0 -35 -7 -20 -16 -81 -5 -89 17
-6 14 -11 12 -37 -13 -29 -27 -30 -33 -25 -79 3 -27 14 -61 24 -75 11 -14 25
-43 33 -65 8 -22 20 -46 27 -53 6 -7 12 -23 12 -35 -1 -20 -3 -19 -18 8 l-17
30 -3 -25 c-2 -14 -7 -29 -12 -33 -9 -10 -2 -47 9 -47 4 0 12 5 19 12 6 6 15
9 18 5 4 -4 9 -72 12 -152 3 -80 7 -145 9 -145 3 0 57 54 120 120 70 73 126
123 142 126 39 10 50 22 83 92 30 63 30 63 14 112 -9 27 -17 65 -18 84 -2 20
-6 36 -10 36 -5 0 -8 5 -8 10 0 6 9 10 20 10 21 0 28 26 9 32 -8 3 -9 18 -4
48 6 35 9 40 17 26 5 -9 7 -24 4 -32 -3 -8 -1 -14 3 -14 5 0 16 -3 25 -6 10
-4 16 -1 16 9 0 27 -22 67 -37 67 -8 0 -13 8 -11 18 6 29 31 19 40 -15 13 -49
21 -40 13 13 -5 35 -2 51 11 72 58 89 -28 295 -146 349 -19 9 -42 22 -50 28
-19 16 -72 23 -96 14z m-179 -568 c3 -5 1 -12 -5 -16 -5 -3 -10 1 -10 9 0 18
6 21 15 7z m175 -36 c0 -27 -8 -29 -59 -19 l-32 7 38 18 c51 23 53 23 53 -6z
m-119 0 c34 -11 20 -25 -21 -22 -51 3 -72 22 -29 25 18 1 40 0 50 -3z m64
-395 c3 -5 1 -10 -4 -10 -6 0 -11 5 -11 10 0 6 2 10 4 10 3 0 8 -4 11 -10z"/>
<path d="M2975 2846 c-19 -13 -18 -14 6 -9 14 2 41 -2 60 -10 l34 -14 -45 2
c-42 2 -70 -8 -70 -25 0 -12 37 -19 48 -8 6 6 15 3 26 -7 9 -9 16 -13 16 -8 0
4 4 14 9 22 8 12 12 11 28 -4 17 -18 18 -18 21 1 2 11 -2 32 -7 47 -9 24 -16
27 -59 27 -26 0 -57 -6 -67 -14z"/>
<path d="M1897 2764 c-13 -14 -7 -34 11 -35 10 0 12 -3 5 -6 -16 -6 -17 -53
-3 -53 6 0 10 -8 8 -17 -5 -31 47 -29 77 3 31 33 31 42 2 76 -22 27 -85 47
-100 32z m63 -100 c0 -2 -7 -4 -15 -4 -8 0 -15 4 -15 10 0 5 7 7 15 4 8 -4 15
-8 15 -10z"/>
<path d="M2088 2750 c-47 -28 9 -120 73 -120 38 0 37 16 -1 24 -18 3 -30 12
-30 21 0 19 9 19 29 1 15 -13 46 -20 80 -17 26 2 -29 50 -63 54 -25 3 -23 4
12 5 25 1 53 -5 67 -14 20 -13 25 -13 25 -3 0 24 -16 39 -51 49 -43 13 -119
12 -141 0z"/>
<path d="M3240 2675 c0 -18 33 -64 55 -79 22 -15 26 -15 31 -2 4 10 -9 29 -33
51 -36 33 -53 42 -53 30z"/>
<path d="M3046 2626 c-29 -36 -33 -46 -22 -55 11 -9 18 -6 34 17 20 27 39 82
29 82 -2 0 -21 -20 -41 -44z"/>
<path d="M4038 2643 c12 -2 30 -2 40 0 9 3 -1 5 -23 4 -22 0 -30 -2 -17 -4z"/>
<path d="M3116 2631 c14 -14 74 -24 74 -13 0 13 -25 22 -58 22 -16 0 -22 -4
-16 -9z"/>
<path d="M3828 2633 c12 -2 30 -2 40 0 9 3 -1 5 -23 4 -22 0 -30 -2 -17 -4z"/>
<path d="M3230 2574 c-33 -9 -38 -13 -20 -14 l25 -1 -22 -18 c-12 -10 -19 -22
-15 -26 4 -5 1 -5 -6 -1 -7 4 -22 4 -34 0 -19 -6 -19 -7 -4 -16 24 -14 55 0
93 41 26 29 43 56 31 50 -2 -1 -23 -7 -48 -15z"/>
<path d="M3084 2539 c21 -11 45 -18 54 -16 15 4 15 5 0 6 -31 2 -20 20 15 24
17 2 1 5 -38 5 l-70 2 39 -21z"/>
<path d="M1992 2373 c4 -19 64 -28 74 -11 9 14 -15 28 -49 28 -22 0 -28 -4
-25 -17z"/>
<path d="M4510 2306 c0 -2 7 -7 16 -10 8 -3 12 -2 9 4 -6 10 -25 14 -25 6z"/>
<path d="M1186 2244 c-11 -71 -11 -233 -1 -243 7 -7 11 6 13 42 1 29 7 68 12
87 14 48 12 100 -4 129 -14 24 -14 24 -20 -15z"/>
<path d="M2630 2080 c-21 -7 -21 -8 -5 -9 11 0 27 4 35 9 18 11 5 11 -30 0z"/>
<path d="M4830 2079 c0 -5 5 -7 10 -4 6 3 10 8 10 11 0 2 -4 4 -10 4 -5 0 -10
-5 -10 -11z"/>
<path d="M1823 2073 c-18 -7 -16 -37 5 -63 l17 -21 23 31 c13 17 21 38 18 46
-5 14 -38 18 -63 7z"/>
<path d="M1510 1980 c0 -13 20 -13 40 0 12 8 9 10 -12 10 -16 0 -28 -4 -28
-10z"/>
<path d="M3743 1983 c26 -2 67 -2 90 0 23 2 2 3 -48 3 -49 0 -68 -1 -42 -3z"/>
<path d="M3980 1980 c8 -5 24 -9 35 -9 l20 0 -20 9 c-11 5 -27 9 -35 9 -13 1
-13 0 0 -9z"/>
<path d="M4097 1979 c5 -4 86 -9 182 -11 96 -2 159 -1 140 3 -48 10 -331 17
-322 8z"/>
<path d="M2381 1956 c37 -13 79 -32 95 -42 25 -16 27 -16 16 -2 -19 23 -89 55
-137 62 -33 4 -28 1 26 -18z"/>
<path d="M4470 1950 c0 -19 3 -21 12 -12 9 9 9 15 0 24 -9 9 -12 7 -12 -12z"/>
<path d="M1206 1858 c9 -82 14 -86 14 -10 0 33 -4 64 -10 67 -6 4 -8 -16 -4
-57z"/>
<path d="M744 1894 c-18 -14 -18 -14 6 -3 31 14 36 19 24 19 -6 0 -19 -7 -30
-16z"/>
<path d="M1732 1864 c-12 -8 -22 -23 -22 -33 0 -33 12 -30 31 6 22 43 20 48
-9 27z"/>
<path d="M4724 1652 c4 -3 14 -7 22 -8 9 -1 13 0 10 4 -4 3 -14 7 -22 8 -9 1
-13 0 -10 -4z"/>
<path d="M1455 1610 c3 -5 1 -10 -6 -10 -7 0 -9 -3 -6 -7 4 -3 2 -12 -5 -20
-10 -12 -7 -12 15 -2 29 13 37 49 11 49 -8 0 -12 -4 -9 -10z"/>
<path d="M380 1540 c0 -5 4 -10 9 -10 6 0 13 5 16 10 3 6 -1 10 -9 10 -9 0
-16 -4 -16 -10z"/>
<path d="M5648 1463 c7 -3 16 -2 19 1 4 3 -2 6 -13 5 -11 0 -14 -3 -6 -6z"/>
<path d="M2448 1423 c7 -3 16 -2 19 1 4 3 -2 6 -13 5 -11 0 -14 -3 -6 -6z"/>
<path d="M4650 1410 c0 -5 5 -10 10 -10 6 0 10 5 10 10 0 6 -4 10 -10 10 -5 0
-10 -4 -10 -10z"/>
<path d="M2277 1318 c-8 -29 -1 -38 29 -38 19 0 24 5 24 24 0 21 -16 36 -40
36 -4 0 -10 -10 -13 -22z"/>
<path d="M182 1310 c0 -14 2 -19 5 -12 2 6 2 18 0 25 -3 6 -5 1 -5 -13z"/>
<path d="M5208 1213 c6 -2 18 -2 25 0 6 3 1 5 -13 5 -14 0 -19 -2 -12 -5z"/>
<path d="M5320 1179 c0 -5 5 -7 10 -4 6 3 10 8 10 11 0 2 -4 4 -10 4 -5 0 -10
-5 -10 -11z"/>
<path d="M2850 986 c0 -2 15 -9 33 -15 29 -10 30 -9 13 4 -18 14 -46 20 -46
11z"/>
</g>
</svg>
